<svg width="200" height="300" viewBox="0 0 200 300" fill="none" xmlns="http://www.w3.org/2000/svg">
<path d="M78.8693 37.661C78.8693 60.5559 100.25 82.907 100.25 82.907C100.25 82.907 119.678 54.8152 119.678 37.661C119.678 13.6742 78.8693 11.9009 78.8693 37.661Z" fill="white"/>
<path d="M51.9995 90.8488C72.856 97.9236 99.824 83.6011 99.824 83.6011C99.824 83.6011 80.2369 55.6303 64.6101 50.3293C42.759 42.917 28.5329 82.8885 51.9995 90.8488Z" fill="white"/>
<path d="M91.784 133.903C104.674 115.381 99.9602 84.1777 99.9602 84.1777C99.9602 84.1777 68.427 94.9825 58.7691 108.861C45.2644 128.266 77.2809 154.743 91.784 133.903Z" fill="white"/>
<path d="M143.479 107.795C130.589 89.2731 100.708 84.3112 100.708 84.3112C100.708 84.3112 100.806 118.96 110.464 132.838C123.969 152.244 157.982 128.636 143.479 107.795Z" fill="white"/>
<path d="M135.39 48.1991C114.533 55.2741 100.78 83.4103 100.78 83.4103C100.78 83.4103 132.374 94.0195 148 88.7186C169.852 81.3062 158.856 40.2388 135.39 48.1991Z" fill="white"/>
<path d="M101.33 110C101.33 110 102.386 116 104.23 128.203C105.965 139.69 106.286 151.235 106.978 162.822C108.106 181.706 103.169 199.496 103.161 218.246C103.153 237.038 108.007 255.496 108.036 274.282C108.047 281.049 98.4371 283.208 96.0077 276.66C92.4502 267.073 94.7041 260 94.7041 240.072C94.704 217.299 100.223 197.28 101.94 174.973C103.575 153.727 101.33 110 101.33 110Z" fill="white"/>
</svg>
