<svg xmlns="http://www.w3.org/2000/svg" width="200" height="300" fill="none">
    <path fill="#fff" d="M78.87 37.661c0 22.895 21.38 45.246 21.38 45.246s19.428-28.092 19.428-45.246c0-23.987-40.809-25.76-40.809 0Z" />
    <path fill="#fff" d="M52 90.849C72.856 97.924 99.823 83.6 99.823 83.6S80.237 55.631 64.61 50.33C42.76 42.917 28.533 82.89 52 90.85Z" />
    <path fill="#fff" d="M91.784 133.903c12.89-18.522 8.176-49.725 8.176-49.725S68.427 94.983 58.77 108.86c-13.506 19.405 18.51 45.882 33.014 25.042Z" />
    <path fill="#fff" d="M143.479 107.795c-12.89-18.522-42.771-23.484-42.771-23.484s.098 34.649 9.756 48.527c13.505 19.406 47.518-4.202 33.015-25.043Z" />
    <path fill="#fff" d="M135.39 48.2c-20.857 7.074-34.61 35.21-34.61 35.21S132.374 94.02 148 88.72c21.852-7.413 10.856-48.48-12.61-40.52ZM101.33 110s1.056 6 2.9 18.203c1.735 11.487 2.056 23.032 2.748 34.619 1.128 18.884-3.809 36.674-3.817 55.424-.008 18.792 4.846 37.25 4.875 56.036.011 6.767-9.599 8.926-12.028 2.378-3.558-9.587-1.304-16.66-1.304-36.588 0-22.773 5.519-42.792 7.236-65.099 1.635-21.246-.61-64.973-.61-64.973Z" />
</svg>